<svg clip-rule="evenodd" fill-rule="evenodd" stroke-linejoin="round" stroke-miterlimit="2" viewBox="0 0 72 72" xmlns="http://www.w3.org/2000/svg" xmlns:xlink="http://www.w3.org/1999/xlink"><linearGradient id="a" gradientTransform="matrix(24.8629 53.6262 -53.6262 24.8629 -.717383 7.62141)" gradientUnits="userSpaceOnUse" x1="0" x2="1" y1="0" y2="0"><stop offset="0" stop-color="#fc801d"/><stop offset=".1" stop-color="#fc801d"/><stop offset=".59" stop-color="#fe2857"/><stop offset="1" stop-color="#fe2857"/></linearGradient><linearGradient id="b" gradientTransform="matrix(58.7049 -58.7054 58.7054 58.7049 4.22243 60.0186)" gradientUnits="userSpaceOnUse" x1="0" x2="1" y1="0" y2="0"><stop offset="0" stop-color="#fe2857"/><stop offset=".21" stop-color="#fe2857"/><stop offset=".7" stop-color="#007eff"/><stop offset="1" stop-color="#007eff"/></linearGradient><clipPath id="c"><path clip-rule="evenodd" d="m0 0h64v64h-64z"/></clipPath><g clip-path="url(#c)" fill-rule="nonzero" transform="scale(1.125)"><path d="m15.948 5.818-11.876.002c-2.249 0-4.072 1.824-4.072 4.073v11.506c0 1.189.52 2.319 1.422 3.093l38.161 32.71c.738.632 1.678.98 2.651.98h11.875c2.249 0 4.073-1.823 4.073-4.073v-11.508c0-1.189-.52-2.319-1.422-3.092l-38.161-32.71c-.738-.633-1.679-.98-2.651-.98z" fill="#ff8100"/><path d="m14.519 5.818h-10.446c-2.25 0-4.073 1.824-4.073 4.073v13.093c0 .192.014.385.041.576l5.277 36.944c.287 2.006 2.005 3.496 4.032 3.496h15.673c2.25 0 4.073-1.824 4.073-4.074l-.005-18.538c0-.438-.071-.872-.209-1.287l-10.499-31.498c-.555-1.663-2.111-2.785-3.864-2.785z" fill="url(#a)"/><path d="m59.928 0h-33.969c-1.629 0-3.101.971-3.743 2.468l-16.068 37.491c-.217.507-.33 1.053-.33 1.604v18.364c0 2.25 1.824 4.073 4.073 4.073h17.966c.805 0 1.591-.238 2.261-.685l32.069-21.404c1.132-.755 1.811-2.026 1.811-3.387l.002-34.451c0-2.25-1.823-4.073-4.072-4.073z" fill="url(#b)"/><path d="m12 12h40v40h-40z"/><g fill="#fff"><path d="m17 29.386h2.979v-9.772h-2.979v-2.614h8.839v2.614h-2.979v9.772h2.979v2.614h-8.839z"/><path d="m27.339 29.3h2.154c.435 0 .823-.093 1.162-.278.339-.186.602-.448.788-.787.185-.34.278-.727.278-1.163v-10.072h2.925v10.275c0 .9-.207 1.709-.622 2.427-.414.718-.985 1.28-1.714 1.687-.729.408-1.546.611-2.453.611h-2.518z"/><path d="m17 44h16v3h-16z"/></g></g></svg>