<svg clip-rule="evenodd" fill-rule="evenodd" stroke-linecap="round" viewBox="0 0 20 20" xmlns="http://www.w3.org/2000/svg"><g transform="matrix(1.33333 0 0 1.33333 -.666667 -.666667)"><path d="m14 3.999v8.002c0 1.103-.8 1.999-1.785 1.999h-8.93c-.985 0-1.785-.896-1.785-1.999v-8.002c0-1.103.8-1.999 1.785-1.999h8.93c.985 0 1.785.896 1.785 1.999zm-.893-.002c0-.55-.399-.997-.891-.997h-8.932c-.492 0-.891.447-.891.997v8.006c0 .55.399.997.891.997h8.932c.492 0 .891-.447.891-.997z" fill="#efefef" transform="matrix(1.12 0 0 1 -.68 0)"/><g fill="none" stroke="#efefef"><path d="m4 5.5h1"/><path d="m7 5.5h1"/></g></g></svg>