<svg clip-rule="evenodd" fill-rule="evenodd" stroke-linejoin="round" stroke-miterlimit="2" viewBox="0 0 20 20" xmlns="http://www.w3.org/2000/svg"><path d="m13.363 5.543c.009-.096.013-.194.013-.293 0-1.864-1.511-3.375-3.375-3.375s-3.375 1.511-3.375 3.375c0 .098.004.196.013.292-.59.326-1.097.784-1.48 1.333l-2.637-1.425c-.303-.164-.683-.051-.847.253s-.051.683.253.847l2.67 1.443c-.145.434-.223.899-.223 1.382v1.25h-3.125c-.345 0-.625.28-.625.625s.28.625.625.625h3.125v.625c0 .612.098 1.2.278 1.752l-2.741 1.582c-.299.172-.401.555-.228.854.172.299.554.401.853.228l2.638-1.523c.984 1.637 2.777 2.732 4.825 2.732s3.84-1.094 4.824-2.73l2.635 1.521c.299.173.681.071.854-.228.172-.299.07-.682-.229-.854l-2.738-1.581c.181-.551.279-1.141.279-1.753v-.625h3.125c.345 0 .625-.28.625-.625s-.28-.625-.625-.625h-3.125v-1.25c0-.483-.078-.948-.223-1.382l2.667-1.443c.304-.165.416-.544.252-.847-.164-.304-.543-.417-.847-.253l-2.633 1.425c-.383-.549-.889-1.006-1.478-1.332zm-5.481-.457c.281-.056.571-.086.868-.086h2.5c.298 0 .589.03.87.086-.084-1.097-1-1.961-2.119-1.961-1.118 0-2.035.864-2.119 1.961zm-2.257 4.289c0-1.726 1.399-3.125 3.125-3.125h2.5c1.726 0 3.125 1.399 3.125 3.125v3.125c0 2.416-1.959 4.375-4.375 4.375s-4.375-1.959-4.375-4.375z" fill="#efefef" transform="matrix(.984615 0 0 .984615 .153846 .153846)"/></svg>