<svg clip-rule="evenodd" fill-rule="evenodd" stroke-linejoin="round" stroke-miterlimit="2" viewBox="0 0 20 20" xmlns="http://www.w3.org/2000/svg"><path d="m39.229 35.709c-1.822 1.742-4.169 2.791-6.729 2.791-5.795 0-10.5-5.377-10.5-12s4.705-12 10.5-12 10.5 5.377 10.5 12c0 2.946-.931 5.646-2.475 7.736l6.783 7.763c.361.413.365 1.08.009 1.487-.356.408-.939.404-1.3-.01zm-6.729-19.346c-4.895 0-8.87 4.542-8.87 10.137s3.975 10.137 8.87 10.137 8.87-4.542 8.87-10.137-3.975-10.137-8.87-10.137z" fill="#efefef" transform="matrix(.625127 0 0 .546275 -11.7486 -5.92099)"/></svg>