<svg clip-rule="evenodd" fill-rule="evenodd" stroke-linejoin="round" stroke-miterlimit="2" viewBox="0 0 28 28" xmlns="http://www.w3.org/2000/svg"><g fill-rule="nonzero"><path d="m5.4998305 5.4998305h16.999955v16.999955h-16.999955z" stroke-width=".485713"/><g fill="#fff" transform="matrix(.41319313482 0 0 .41319313482 -.875152625 -.875152625)"><path d="m19.906 48.857h15.429v2.571h-15.429z"/><path d="m19.262 26.057 1.145-1.083c.221.348.596.57 1.008.596.439 0 .727-.301.727-.898v-4.101h1.769v4.115c.053.65-.162 1.295-.597 1.783-.477.443-1.111.678-1.762.651-.894.059-1.758-.343-2.29-1.063z"/><path d="m24.686 20.571h5.163v1.502h-3.428v.988h3.078v1.371h-3.03v1.022h3.428v1.515h-5.211z"/><path d="m32.386 22.142h-1.92v-1.571h5.63v1.557h-1.927v4.869h-1.783z"/><path d="m19.975 29.541h3.031c.635-.048 1.263.157 1.748.569.275.278.424.658.412 1.049.015.639-.385 1.22-.988 1.433.751.138 1.295.808 1.276 1.57 0 1.104-.899 1.776-2.435 1.776h-3.044zm3.428 1.981c0-.356-.288-.548-.809-.548h-.884v1.124h.85c.542 0 .857-.178.857-.555zm-.603 1.824h-1.09v1.187h1.111c.548 0 .85-.213.85-.59 0-.343-.274-.597-.871-.597z"/><path d="m26.057 29.541h2.812c.748-.049 1.487.197 2.057.685.407.392.632.937.617 1.502.025.873-.508 1.671-1.324 1.982l1.536 2.242h-2.057l-1.289-1.947h-.596v1.947h-1.756zm2.743 3.085c.597 0 .953-.295.953-.761 0-.514-.37-.768-.96-.768h-.987v1.55z"/><path d="m34.005 29.486h1.714l2.743 6.473h-1.913l-.46-1.159h-2.489l-.459 1.159h-1.859zm1.556 3.929-.686-1.817-.726 1.817z"/><path d="m38.715 29.52h1.783v6.425h-1.783z"/><path d="m41.184 29.52h1.659l2.311 3.429v-3.429h1.763v6.425h-1.55l-2.421-3.524v3.524h-1.762z"/><path d="m47.218 34.971.995-1.186c.577.485 1.303.758 2.057.775.487 0 .74-.165.74-.446 0-.274-.212-.411-1.09-.624-1.371-.315-2.421-.685-2.421-2.009 0-1.193.94-2.057 2.483-2.057.955-.037 1.894.267 2.647.857l-.864 1.262c-.521-.389-1.148-.609-1.797-.631-.432 0-.645.171-.645.411 0 .288.22.419 1.118.624 1.468.316 2.359.796 2.359 1.996 0 1.31-1.035 2.057-2.599 2.057-1.085.027-2.145-.338-2.983-1.029z"/></g></g></svg>