<svg clip-rule="evenodd" fill-rule="evenodd" viewBox="0 0 20 20" xmlns="http://www.w3.org/2000/svg"><g fill="none" stroke="#efefef" stroke-width="1.5"><circle cx="10" cy="10" r="8"/><path d="m13.25 10c0 2.326-.466 4.401-1.153 5.869-.344.735-.729 1.288-1.111 1.646-.382.359-.717.485-.986.485s-.604-.126-.986-.485c-.382-.358-.767-.911-1.111-1.646-.687-1.468-1.153-3.543-1.153-5.869s.466-4.401 1.153-5.869c.344-.735.729-1.288 1.111-1.646.382-.359.717-.485.986-.485s.604.126.986.485c.382.358.767.911 1.111 1.646.687 1.468 1.153 3.543 1.153 5.869z"/><path d="m17.5 7.25h-15.056"/><path d="m17.5 12.75h-15"/></g></svg>