<svg clip-rule="evenodd" fill-rule="evenodd" stroke-linejoin="round" stroke-miterlimit="2" viewBox="0 0 20 20" xmlns="http://www.w3.org/2000/svg"><g fill="#efefef" fill-rule="nonzero" transform="matrix(.984615 0 0 .984615 .019231 .038462)"><path d="m16.25 15.625c0-.345.28-.625.625-.625h2.5c.345 0 .625.28.625.625v2.5c0 .345-.28.625-.625.625h-2.5c-.345 0-.625-.28-.625-.625z"/><path d="m11.25 15.625c0-.345.28-.625.625-.625h2.5c.345 0 .625.28.625.625v2.5c0 .345-.28.625-.625.625h-2.5c-.345 0-.625-.28-.625-.625z"/><path d="m16.25 10.625c0-.345.28-.625.625-.625h2.5c.345 0 .625.28.625.625v2.5c0 .345-.28.625-.625.625h-2.5c-.345 0-.625-.28-.625-.625z"/><path d="m16.25 5h-5.625l-2.206-2.146c-.233-.227-.546-.354-.871-.354h-4.11c-1.209 0-2.188 1.045-2.188 2.333v10.334c0 1.288.979 2.333 2.188 2.333h6.562v-1.25h-6.562c-.443 0-.938-.408-.938-1.083v-10.334c0-.675.495-1.083.938-1.083h4.11l2.569 2.5h6.133c.69 0 1.25.56 1.25 1.25v1.25h1.25v-1.25c0-1.381-1.119-2.5-2.5-2.5z"/></g></svg>