<svg clip-rule="evenodd" fill-rule="evenodd" stroke-linejoin="round" stroke-miterlimit="2" viewBox="0 0 20 20" xmlns="http://www.w3.org/2000/svg"><g fill="#efefef"><path d="m38.25 49.373v.127h-14.062c-2.175 0-3.938-1.88-3.938-4.2v-18.6c0-2.32 1.763-4.2 3.938-4.2h7.398c.586 0 1.149.229 1.569.637l3.97 3.863h10.125c2.485 0 4.5 2.015 4.5 4.5v4.5h-.023c-.682-.483-1.43-.879-2.227-1.174v-3.326c0-1.243-1.007-2.25-2.25-2.25h-11.039l-4.625-4.5h-7.398c-.798 0-1.688.734-1.688 1.95v18.6c0 1.216.89 1.95 1.688 1.95h12.933c.288.758.669 1.471 1.129 2.123z" transform="matrix(.555556 0 0 .555556 -10 -10)"/><path d="m12 10h1v3h-1z" transform="matrix(-.36116674875 .90863051762 .90863051762 .36116674875 10.72002544646 -.58491550542)"/><path d="m10 10h3v1h-3z" transform="matrix(0 .977778 .977778 0 5.333378 2.127822)"/><path d="m11.5 15c1.933 0 3.5-1.567 3.5-3.5s-1.567-3.5-3.5-3.5-3.5 1.567-3.5 3.5 1.567 3.5 3.5 3.5zm0 1c-2.485 0-4.5-2.015-4.5-4.5s2.015-4.5 4.5-4.5 4.5 2.015 4.5 4.5-2.015 4.5-4.5 4.5z" transform="matrix(0 .977778 .977778 0 4.3556 3.1056)"/></g></svg>