<svg clip-rule="evenodd" fill-rule="evenodd" stroke-linejoin="round" stroke-miterlimit="2" viewBox="0 0 20 20" xmlns="http://www.w3.org/2000/svg"><g fill="#efefef"><path d="m38.223 32.835c.133-.336.325-.529.527-.529s.394.193.527.529l2.212 5.604c.181.457.223 1.105.109 1.656s-.364.905-.639.905h-4.415c-.276 0-.526-.354-.64-.907-.115-.552-.072-1.201.109-1.659zm.33.614-2.216 5.595c-.074.185-.091.447-.045.671.046.223.147.367.259.367h4.388c.112 0 .214-.144.26-.368s.028-.487-.045-.673l-2.215-5.592c-.049-.123-.119-.193-.193-.193s-.144.07-.193.193z" transform="matrix(0 2.74857 -1.24805 0 59.552051 -96.518856)"/><path d="m22.5 22.262v25.476c0 1.8-.982 3.262-2.193 3.262h-2.614c-1.211 0-2.193-1.462-2.193-3.262v-25.476c0-1.8.982-3.262 2.193-3.262h2.614c1.211 0 2.193 1.462 2.193 3.262zm-1.562.004c0-.514-.281-.932-.626-.932h-2.618c-.346 0-.627.418-.627.932v25.471c0 .514.281.932.627.932h2.618c.345 0 .626-.418.626-.932z" transform="matrix(.785714 0 0 .499988 -11.411149 -7.489746)"/></g></svg>