<svg clip-rule="evenodd" fill-rule="evenodd" stroke-linejoin="round" stroke-miterlimit="2" viewBox="0 0 20 20" xmlns="http://www.w3.org/2000/svg"><path d="m29.514 21.391c.361-.704 1.022-1.137 1.736-1.137s1.375.433 1.736 1.137l7.174 14.014c.378.739.381 1.652.008 2.395-.373.742-1.066 1.2-1.815 1.2h-14.214c-.748 0-1.439-.457-1.811-1.197-.373-.741-.369-1.652.008-2.39zm2.353.806c-.128-.251-.362-.406-.617-.406s-.489.155-.617.406l-7.113 14.066c-.127.251-.127.561 0 .813.127.251.363.406.617.406h14.226c.254 0 .49-.155.617-.406.127-.252.127-.562 0-.813z" fill="#efefef" transform="matrix(0 .974497 -.853515 0 35.2871 -20.4513)"/></svg>