<svg clip-rule="evenodd" fill-rule="evenodd" stroke-linejoin="round" stroke-miterlimit="2" viewBox="0 0 20 20" xmlns="http://www.w3.org/2000/svg"><g fill="#efefef"><path d="m2.5 17.5h15v1.25h-15z" stroke-width=".5"/><path d="m34.956 10.567c-.002-.691-.564-1.248-1.254-1.246s-1.248.564-1.246 1.254l.033 10.197-12.899-11.698-.882-.799-.842.841-12.5 12.5c-.488.488-.488 1.28 0 1.768s1.28.488 1.768 0l11.658-11.658 11.812 10.712-9.966.032c-.69.003-1.248.564-1.246 1.255.003.69.564 1.248 1.255 1.245l13.106-.043 1.25-.004-.004-1.25z" transform="scale(.5)"/></g></svg>