<svg clip-rule="evenodd" fill-rule="evenodd" stroke-linejoin="round" stroke-miterlimit="2" viewBox="0 0 20 20" xmlns="http://www.w3.org/2000/svg"><g fill="#efefef" transform="matrix(.948148 0 0 .948148 .518519 .222222)"><path d="m17.5 18.125c0 .345-.28.625-.625.625h-13.75c-.345 0-.625-.28-.625-.625s.28-.625.625-.625h13.75c.345 0 .625.28.625.625z"/><path d="m15.442 9.567c.244-.244.244-.64 0-.884s-.64-.244-.884 0l-3.933 3.933v-10.116c0-.345-.28-.625-.625-.625s-.625.28-.625.625v10.116l-3.933-3.933c-.244-.244-.64-.244-.884 0s-.244.64 0 .884l5 5 .442.442.442-.442z"/></g></svg>