<svg clip-rule="evenodd" fill-rule="evenodd" stroke-linejoin="round" stroke-miterlimit="2" viewBox="0 0 20 20" xmlns="http://www.w3.org/2000/svg"><path d="m51.052 18.5c1.047 0 2.051.388 2.792 1.078.74.691 1.156 1.627 1.156 2.604v27.16c0 .971-.413 1.901-1.149 2.587s-1.733 1.071-2.774 1.071h-29.117c-2.187 0-3.96-1.653-3.96-3.692v-27.112c0-2.041 1.774-3.696 3.963-3.696zm-1.916 2.464h-25.356c-.832 0-1.63.308-2.218.857-.588.548-.919 1.292-.919 2.068v23.662c0 1.649 1.433 2.985 3.201 2.985h25.311c.849 0 1.664-.315 2.264-.875.601-.56.938-1.319.938-2.111v-23.582c0-1.659-1.442-3.004-3.221-3.004z" fill="#efefef" transform="matrix(.432434 0 0 .463768 -5.78383 -6.57971)"/></svg>