<svg clip-rule="evenodd" fill-rule="evenodd" stroke-linecap="round" viewBox="0 0 72 72" xmlns="http://www.w3.org/2000/svg"><g transform="matrix(2.91667 0 0 2.91667 12.6667 12.6667)"><path d="m14 3.999v8.002c0 1.103-.8 1.999-1.785 1.999h-8.93c-.985 0-1.785-.896-1.785-1.999v-8.002c0-1.103.8-1.999 1.785-1.999h8.93c.985 0 1.785.896 1.785 1.999z" fill="#548af7" transform="matrix(1.12 0 0 1 -.68 0)"/><path d="m14 3.997v8.006c0 .55-.428.997-.956.997h-9.588c-.528 0-.956-.447-.956-.997v-8.006c0-.55.428-.997.956-.997h9.588c.528 0 .956.447.956.997z" fill="#25324d" transform="matrix(1.04348 0 0 1 -.608696 0)"/><g fill="none" stroke="#548af7"><path d="m4 5.5h1"/><path d="m7 5.5h1"/></g></g></svg>