<svg clip-rule="evenodd" fill-rule="evenodd" stroke-linejoin="round" stroke-miterlimit="2" viewBox="0 0 72 72" xmlns="http://www.w3.org/2000/svg"><g fill="#ced0d6" transform="matrix(1.08025 0 0 1.08025 -2.88889 -2.88889)"><g fill-rule="nonzero"><path d="m34.2 31.5c0 1.491-1.209 2.7-2.7 2.7s-2.7-1.209-2.7-2.7 1.209-2.7 2.7-2.7 2.7 1.209 2.7 2.7z"/><path d="m43.2 31.5c0 1.491-1.209 2.7-2.7 2.7s-2.7-1.209-2.7-2.7 1.209-2.7 2.7-2.7 2.7 1.209 2.7 2.7z"/><path d="m40.5 43.2c1.491 0 2.7-1.209 2.7-2.7s-1.209-2.7-2.7-2.7-2.7 1.209-2.7 2.7 1.209 2.7 2.7 2.7z"/><path d="m34.2 40.5c0 1.491-1.209 2.7-2.7 2.7s-2.7-1.209-2.7-2.7 1.209-2.7 2.7-2.7 2.7 1.209 2.7 2.7z"/></g><path d="m52.2 36c0 8.947-7.253 16.2-16.2 16.2s-16.2-7.253-16.2-16.2 7.253-16.2 16.2-16.2 16.2 7.253 16.2 16.2zm-2.7 0c0 7.456-6.044 13.5-13.5 13.5s-13.5-6.044-13.5-13.5 6.044-13.5 13.5-13.5 13.5 6.044 13.5 13.5z"/></g></svg>