<svg clip-rule="evenodd" fill-rule="evenodd" stroke-linejoin="round" stroke-miterlimit="2" viewBox="0 0 72 72" xmlns="http://www.w3.org/2000/svg"><g transform="matrix(1.19658 0 0 1.19658 -7.07692 -7.07692)"><path d="m42.054 27.978c.015-.174.023-.35.023-.528 0-3.355-2.72-6.075-6.075-6.075s-6.075 2.72-6.075 6.075c0 .177.007.353.022.526-1.061.586-1.973 1.41-2.663 2.4l-4.746-2.566c-.547-.295-1.229-.091-1.525.455-.295.547-.091 1.229.455 1.525l4.806 2.597c-.26.782-.401 1.619-.401 2.488v2.25h-5.625c-.621 0-1.125.504-1.125 1.125s.504 1.125 1.125 1.125h5.625v1.125c0 1.101.176 2.16.5 3.153l-4.933 2.848c-.538.31-.722.999-.412 1.537.311.538.999.722 1.537.411l4.748-2.741c1.771 2.946 4.998 4.917 8.685 4.917 3.686 0 6.912-1.97 8.683-4.914l4.743 2.738c.538.311 1.226.127 1.537-.411.31-.538.126-1.226-.412-1.537l-4.928-2.845c.326-.993.502-2.054.502-3.156v-1.125h5.625c.621 0 1.125-.504 1.125-1.125 0-.622-.504-1.125-1.125-1.125h-5.625v-2.25c0-.869-.141-1.706-.401-2.487l4.8-2.598c.547-.296.75-.979.454-1.525-.296-.547-.978-.75-1.525-.454l-4.739 2.565c-.689-.989-1.6-1.812-2.66-2.398zm-9.866-.823c.505-.102 1.027-.155 1.562-.155h4.5c.536 0 1.06.054 1.566.156-.151-1.975-1.801-3.531-3.814-3.531s-3.663 1.555-3.814 3.53zm-4.063 7.72c0-3.107 2.518-5.625 5.625-5.625h4.5c3.107 0 5.625 2.518 5.625 5.625v5.625c0 4.349-3.526 7.875-7.875 7.875s-7.875-3.526-7.875-7.875z" fill="#57965c"/><g fill="#253627" fill-rule="nonzero"><path d="m33.75 27c-.535 0-1.057.053-1.562.155.151-1.975 1.801-3.53 3.814-3.53s3.663 1.556 3.814 3.531c-.506-.102-1.03-.156-1.566-.156z"/><path d="m33.75 29.25c-3.107 0-5.625 2.518-5.625 5.625v5.625c0 4.349 3.526 7.875 7.875 7.875s7.875-3.526 7.875-7.875v-5.625c0-3.107-2.518-5.625-5.625-5.625z"/></g></g></svg>