<svg clip-rule="evenodd" fill-rule="evenodd" stroke-linejoin="round" stroke-miterlimit="2" viewBox="0 0 72 72" xmlns="http://www.w3.org/2000/svg"><path d="m36.5 12c8.279 0 15 9.634 15 21.5s-6.721 21.5-15 21.5-15-9.634-15-21.5 6.721-21.5 15-21.5zm4.068 38.214c2.882-1.443 5.279-4.376 6.74-8.153h-4.68c-.464 2.818-1.154 5.555-2.06 8.153zm2.534-11.862h5.275c.307-1.542.471-3.17.471-4.852 0-1.711-.17-3.366-.487-4.931h-5.259c.148 1.616.224 3.25.224 4.892s-.076 3.275-.224 4.891zm-.474-13.491h4.649c-1.458-3.726-3.828-6.62-6.676-8.058.89 2.57 1.569 5.274 2.027 8.058zm-12.785 3.708h-5.204c-.317 1.565-.487 3.22-.487 4.931 0 1.682.164 3.31.471 4.852h5.22c-.148-1.615-.224-3.249-.224-4.891 0-1.643.076-3.276.224-4.892zm.474 13.492h-4.625c1.45 3.748 3.821 6.665 6.674 8.119-.901-2.588-1.587-5.313-2.049-8.119zm5.402 9.103c.258.023.519.034.781.034.243 0 .484-.01.724-.03 1.22-2.839 2.136-5.909 2.724-9.107h-6.951c.588 3.196 1.503 6.265 2.722 9.103zm-3.25-12.812h8.007c.165-1.613.249-3.248.249-4.891 0-1.644-.084-3.279-.249-4.892h-8.007c-.165 1.613-.249 3.248-.249 4.892 0 1.643.084 3.278.249 4.891zm.528-13.491h6.951c-.583-3.168-1.486-6.21-2.689-9.026-.251-.022-.504-.033-.759-.033-.274 0-.546.012-.816.038-1.202 2.814-2.105 5.855-2.687 9.021zm-.665-8.024c-2.818 1.45-5.163 4.328-6.609 8.024h4.594c.456-2.772 1.131-5.465 2.015-8.024z" fill="#ced0d6" transform="matrix(1.16667 0 0 .813953 -6.58333 8.73256)"/></svg>