<svg clip-rule="evenodd" fill-rule="evenodd" stroke-linejoin="round" stroke-miterlimit="2" viewBox="0 0 72 72" xmlns="http://www.w3.org/2000/svg"><g fill="#ced0d6"><path d="m34.528 23.125c.656 0 1.284.236 1.748.656s.724.99.724 1.584v30.577c0 1.206-1.079 2.183-2.409 2.183h-6.785c-.645 0-1.263-.232-1.719-.645s-.712-.973-.712-1.557v-30.59c0-.586.257-1.147.714-1.561s1.076-.647 1.723-.647zm-1.274 2.359h-4.21c-.31 0-.607.112-.825.31-.219.198-.342.467-.342.748v28.106c0 .297.13.581.361.79.231.21.545.328.872.328h4.112c.338 0 .663-.122.902-.339.24-.217.374-.511.374-.818v-27.998c0-.622-.557-1.127-1.244-1.127z" transform="matrix(.906176 0 0 1 -1.36624 -4.62503)"/><path d="m34.528 23.125c.656 0 1.284.236 1.748.656s.724.99.724 1.584v30.577c0 1.206-1.079 2.183-2.409 2.183h-6.785c-.645 0-1.263-.232-1.719-.645s-.712-.973-.712-1.557v-30.59c0-.586.257-1.147.714-1.561s1.076-.647 1.723-.647zm-1.274 2.359h-4.21c-.31 0-.607.112-.825.31-.219.198-.342.467-.342.748v28.106c0 .297.13.581.361.79.231.21.545.328.872.328h4.112c.338 0 .663-.122.902-.339.24-.217.374-.511.374-.818v-27.998c0-.622-.557-1.127-1.244-1.127z" transform="matrix(.906176 0 0 1 16.8434 -4.62503)"/></g></svg>