<svg clip-rule="evenodd" fill-rule="evenodd" stroke-linejoin="round" stroke-miterlimit="2" viewBox="0 0 72 72" xmlns="http://www.w3.org/2000/svg"><g fill-rule="nonzero" transform="matrix(1.19658 0 0 1.19658 -8.42308 -8.42308)"><g fill="#548af7"><path d="m47.25 46.125c0-.621.504-1.125 1.125-1.125h4.5c.621 0 1.125.504 1.125 1.125v4.5c0 .621-.504 1.125-1.125 1.125h-4.5c-.621 0-1.125-.504-1.125-1.125z"/><path d="m38.25 46.125c0-.621.504-1.125 1.125-1.125h4.5c.621 0 1.125.504 1.125 1.125v4.5c0 .621-.504 1.125-1.125 1.125h-4.5c-.621 0-1.125-.504-1.125-1.125z"/><path d="m47.25 37.125c0-.621.504-1.125 1.125-1.125h4.5c.621 0 1.125.504 1.125 1.125v4.5c0 .621-.504 1.125-1.125 1.125h-4.5c-.621 0-1.125-.504-1.125-1.125z"/></g><path d="m47.25 27h-10.125l-3.97-3.863c-.42-.408-.983-.637-1.569-.637h-7.398c-2.175 0-3.938 1.88-3.938 4.2v18.6c0 2.32 1.763 4.2 3.938 4.2h11.812v-2.25h-11.812c-.798 0-1.688-.734-1.688-1.95v-18.6c0-1.216.89-1.95 1.688-1.95h7.398l4.625 4.5h11.039c1.243 0 2.25 1.007 2.25 2.25v2.25h2.25v-2.25c0-2.485-2.015-4.5-4.5-4.5z" fill="#ced0d6"/></g></svg>