<svg clip-rule="evenodd" fill-rule="evenodd" stroke-linejoin="round" stroke-miterlimit="2" viewBox="0 0 72 72" xmlns="http://www.w3.org/2000/svg"><path d="m38.223 32.835c.133-.336.325-.529.527-.529s.394.193.527.529l2.212 5.604c.181.457.223 1.105.109 1.656s-.364.905-.639.905h-4.415c-.276 0-.526-.354-.64-.907-.115-.552-.072-1.201.109-1.659z" fill="#57965c" transform="matrix(0 6.01263237516 -2.73017075411 0 144.90715683683 -196.99486855147)"/><path d="m39.822 19.917c.108-.483.264-.76.428-.76s.32.277.428.76l4.908 21.99c.163.73.202 1.764.099 2.646-.102.881-.327 1.447-.575 1.447h-9.724c-.247 0-.471-.564-.574-1.444-.102-.879-.063-1.91.099-2.638z" fill="#253627" transform="matrix(0 2.71337179052 -.69426006538 0 67.41265996164 -73.2431685142)"/><path d="m22.5 22.262v25.476c0 1.8-.982 3.262-2.193 3.262h-2.614c-1.211 0-2.193-1.462-2.193-3.262v-25.476c0-1.8.982-3.262 2.193-3.262h2.614c1.211 0 2.193 1.462 2.193 3.262z" fill="#57965c" transform="matrix(1.62744587175 0 0 1.0937516869 -9.93025184876 -2.28125395669)"/><path d="m22.5 20.091v29.818c0 .602-.508 1.091-1.133 1.091h-4.734c-.625 0-1.133-.489-1.133-1.091v-29.818c0-.602.508-1.091 1.133-1.091h4.734c.625 0 1.133.489 1.133 1.091z" fill="#253627" transform="matrix(.89992629715 0 0 .93428417821 3.89702278341 3.30170816748)"/></svg>