<svg clip-rule="evenodd" fill-rule="evenodd" stroke-linejoin="round" stroke-miterlimit="2" viewBox="0 0 72 72" xmlns="http://www.w3.org/2000/svg"><path d="m29.514 21.391c.361-.704 1.022-1.137 1.736-1.137s1.375.433 1.736 1.137l7.174 14.014c.378.739.381 1.652.008 2.395-.373.742-1.066 1.2-1.815 1.2h-14.214c-.748 0-1.439-.457-1.811-1.197-.373-.741-.369-1.652.008-2.39z" fill="#57965c" transform="matrix(0 2.1316639645 -1.8670227198 0 91.313873368 -30.610553325)"/><path d="m48.236 37.158-23.135 13.358c-.413.238-.923.238-1.337 0-.413-.239-.668-.681-.668-1.158v-26.716c0-.477.255-.919.668-1.158.414-.238.924-.238 1.337 0l23.135 13.358c.413.239.668.68.668 1.158s-.255.919-.668 1.158z" fill="#253627" transform="matrix(1.1351193882 0 0 1.1351262649 -4.8819734 -4.860665864)"/></svg>