<svg clip-rule="evenodd" fill-rule="evenodd" stroke-linejoin="round" stroke-miterlimit="2" viewBox="0 0 72 72" xmlns="http://www.w3.org/2000/svg"><g fill="#ced0d6" transform="matrix(1.33065 0 0 1.33065 -11.9046 -15.3613)"><path d="m49.5 50.345v.56c0 .466-.379.845-.845.845h-25.31c-.466 0-.845-.379-.845-.845v-.56c0-.466.379-.845.845-.845h25.31c.466 0 .845.379.845.845z"/><path d="m35.658 27.981c-.079-.078-.185-.122-.296-.122s-.217.044-.296.122l-10.888 10.889c-.38.381-.997.381-1.377 0-.381-.38-.381-.997 0-1.378l1.382-1.381c.009-.011.019-.021.029-.031l10.506-10.506c.355-.356.932-.356 1.288 0l11.193 11.193.354.354v-8.67c0-.538.436-.974.974-.974s.974.436.975.974l-.001 11.022v.974h-11.995c-.538 0-.974-.436-.974-.974s.436-.974.974-.974h8.669l-.354-.354z" transform="translate(0 .13972)"/></g></svg>