<svg clip-rule="evenodd" fill-rule="evenodd" stroke-linejoin="round" stroke-miterlimit="2" viewBox="0 0 72 72" xmlns="http://www.w3.org/2000/svg"><g fill="#ced0d6" transform="matrix(1.15226 0 0 1.15226 -5.48145 -6.12959)"><path d="m49.5 50.476v.298c0 .539-.437.976-.976.976h-25.048c-.539 0-.976-.437-.976-.976v-.298c0-.539.437-.976.976-.976h25.048c.539 0 .976.437.976.976z"/><path d="m45.796 31.17c.439.44.439 1.152 0 1.591-.44.44-1.152.44-1.592 0l-7.079-7.079v18.209c0 .621-.504 1.125-1.125 1.125s-1.125-.504-1.125-1.125v-18.209l-7.08 7.079c-.439.44-1.151.44-1.59 0-.44-.439-.44-1.151 0-1.591l9.795-9.795.795.795z"/></g></svg>